# xmcd
#
# Track frame offsets:
#	150
#	11097
#	28410
#	60867
#	74470
#	84860
#	98625
#	111835
#
# Disc length: 1748
#
# Revision: 1
# Processed by: cddbd v1.5.1PL0 Copyright (c) Steve Scherf et al.
# Submitted via: FreeRIP 2.70 
# Normalized: r0:TDELIM( - )
#
DISCID=5d06d208
DTITLE=Various Artist - Sorte evergreens
DYEAR=1997
DGENRE=Blues
TTITLE0=The Platters - Smoke gets in your eyes
TTITLE1=Marvin Gaye - I heard it through the grapevine
TTITLE2=The original lead singers of the Temptations - Papa was a rolling stone
TTITLE3=The original lead singers of the Temptations - My girl
TTITLE4=The Mills Brothers - Lazy River
TTITLE5=Ella Fitzgreald - Basin Street Blues
TTITLE6=Ike and Tina Turner - Nutbush City Limits
TTITLE7=James Brown - Sex Machine (live)
EXTD=
EXTT0=
EXTT1=
EXTT2=
EXTT3=
EXTT4=
EXTT5=
EXTT6=
EXTT7=
PLAYORDER=
